<?xml version="1.0" encoding="utf-8"?>
<!-- Generator: Adobe Illustrator 24.0.1, SVG Export Plug-In . SVG Version: 6.00 Build 0)  -->
<svg version="1.1" id="レイヤー_1" xmlns="http://www.w3.org/2000/svg" xmlns:xlink="http://www.w3.org/1999/xlink" x="0px"
	 y="0px" viewBox="0 0 177.45 16.74" style="enable-background:new 0 0 177.45 16.74;" xml:space="preserve">
<style type="text/css">
	.st0{clip-path:url(#SVGID_2_);}
	.st1{fill:#A7AE9E;}
	.st2{clip-path:url(#SVGID_8_);}
	.st3{fill:#FFFFFF;}
	.st4{fill:#221815;}
	.st5{fill:#D5E7E7;}
	.st6{fill:#F6F6F6;}
	.st7{fill:#231916;}
	.st8{fill:none;stroke:#221815;stroke-width:1.9325;stroke-miterlimit:10;}
	.st9{fill:#FFFFFF;stroke:#221815;stroke-width:1.9325;stroke-miterlimit:10;}
	.st10{clip-path:url(#SVGID_12_);}
	.st11{fill:#FF1C23;}
	.st12{fill:#B3B3B3;}
	.st13{fill:#ECECEC;}
	.st14{fill:#E0E2DD;}
	.st15{fill:none;stroke:#FFFFFF;stroke-width:0.7966;stroke-linejoin:bevel;stroke-miterlimit:10;}
	.st16{fill:none;stroke:#221815;stroke-width:0.7966;stroke-miterlimit:10;}
	.st17{fill:none;stroke:#221815;stroke-width:0.7966;stroke-linejoin:bevel;stroke-miterlimit:10;}
	.st18{fill:none;stroke:#221815;stroke-width:0.7807;stroke-linejoin:bevel;stroke-miterlimit:10;}
	.st19{clip-path:url(#SVGID_18_);}
	.st20{clip-path:url(#SVGID_20_);}
	.st21{fill:none;stroke:#FFFFFF;stroke-width:0.4652;stroke-linejoin:bevel;stroke-miterlimit:10;}
	.st22{fill:none;stroke:#221815;stroke-width:0.4652;stroke-miterlimit:10;}
	.st23{fill:none;stroke:#221815;stroke-width:0.4652;stroke-linejoin:bevel;stroke-miterlimit:10;}
	.st24{fill:none;stroke:#221815;stroke-width:0.4559;stroke-linejoin:bevel;stroke-miterlimit:10;}
	.st25{clip-path:url(#SVGID_26_);}
	.st26{fill:none;}
	.st27{clip-path:url(#SVGID_28_);}
</style>
<g>
	<path class="st7" d="M6.95,16.74h-3.1c-1.2,0-2.14-0.34-2.82-1.02C0.34,15.05,0,14.1,0,12.89V3.85c0-1.21,0.34-2.16,1.03-2.84
		S2.66,0,3.85,0h3.1c1.2,0,2.14,0.34,2.83,1.03c0.68,0.69,1.03,1.63,1.03,2.82v9.03c0,1.2-0.34,2.14-1.03,2.82
		C9.09,16.4,8.15,16.74,6.95,16.74z M4.06,15.07h2.66c1.46,0,2.19-0.76,2.19-2.26V3.93c0-1.51-0.73-2.27-2.19-2.27H4.06
		c-1.44,0-2.16,0.76-2.16,2.27v8.88C1.9,14.32,2.62,15.07,4.06,15.07z"/>
	<path class="st7" d="M16.84,16.74h-1.17c-0.24,0-0.36-0.12-0.36-0.36V0.36c0-0.24,0.12-0.36,0.36-0.36h1.17
		c0.24,0,0.36,0.12,0.36,0.36v8.98h0.08c0.12-0.36,0.31-0.72,0.57-1.07l5.83-7.91C23.85,0.12,24.07,0,24.37,0h1.41
		c0.3,0,0.34,0.13,0.13,0.39l-5.15,6.98l5.88,8.96c0.19,0.28,0.11,0.42-0.23,0.42h-1.07c-0.36,0-0.61-0.12-0.75-0.36l-5-7.63
		l-2.37,2.84v4.79C17.21,16.62,17.09,16.74,16.84,16.74z"/>
	<path class="st7" d="M31.5,16.74h-1.17c-0.24,0-0.36-0.12-0.36-0.36V0.36c0-0.24,0.12-0.36,0.36-0.36h1.17
		c0.24,0,0.36,0.12,0.36,0.36v6.85c0,0.16,0.09,0.23,0.26,0.23h6.46c0.17,0,0.26-0.08,0.26-0.23V0.36c0-0.24,0.12-0.36,0.36-0.36
		h1.17c0.24,0,0.36,0.12,0.36,0.36v16.01c0,0.24-0.12,0.36-0.36,0.36h-1.17c-0.24,0-0.36-0.12-0.36-0.36V9.35
		c0-0.16-0.09-0.23-0.26-0.23h-6.46c-0.17,0-0.26,0.08-0.26,0.23v7.03C31.86,16.62,31.74,16.74,31.5,16.74z"/>
	<path class="st7" d="M52.19,16.74h-3.1c-1.2,0-2.14-0.34-2.82-1.02c-0.69-0.68-1.03-1.62-1.03-2.84V3.85
		c0-1.21,0.34-2.16,1.03-2.84S47.9,0,49.1,0h3.1c1.2,0,2.14,0.34,2.83,1.03c0.68,0.69,1.03,1.63,1.03,2.82v9.03
		c0,1.2-0.34,2.14-1.03,2.82C54.34,16.4,53.39,16.74,52.19,16.74z M49.31,15.07h2.66c1.46,0,2.19-0.76,2.19-2.26V3.93
		c0-1.51-0.73-2.27-2.19-2.27h-2.66c-1.44,0-2.16,0.76-2.16,2.27v8.88C47.15,14.32,47.86,15.07,49.31,15.07z"/>
	<path class="st7" d="M64.64,16.74h-1.17c-0.24,0-0.36-0.12-0.36-0.36V1.9c0-0.16-0.09-0.23-0.26-0.23H59.3
		c-0.26,0-0.39-0.12-0.39-0.36V0.36C58.91,0.12,59.04,0,59.3,0h9.5c0.26,0,0.39,0.12,0.39,0.36V1.3c0,0.24-0.13,0.36-0.39,0.36
		h-3.54c-0.17,0-0.26,0.08-0.26,0.23v14.47C65.01,16.62,64.88,16.74,64.64,16.74z"/>
	<path class="st7" d="M72.14,12.89v-0.83c0-0.24,0.12-0.36,0.36-0.36h1.17c0.24,0,0.36,0.12,0.36,0.36v0.68
		c0,1.56,0.77,2.34,2.32,2.34h2.29c1.54,0,2.32-0.8,2.32-2.4v-0.88c0-1.25-1.03-2.07-3.1-2.45C77,9.19,76.13,9.01,75.26,8.8
		c-0.87-0.21-1.6-0.61-2.21-1.21c-0.61-0.6-0.91-1.42-0.91-2.46V3.85c0-1.2,0.34-2.14,1.03-2.82C73.85,0.34,74.79,0,75.99,0h2.89
		c1.18,0,2.12,0.34,2.81,1.03c0.69,0.69,1.04,1.63,1.04,2.82V4.5c0,0.26-0.11,0.39-0.34,0.39h-1.2c-0.23,0-0.34-0.13-0.34-0.39V4.04
		c0-1.58-0.77-2.37-2.32-2.37h-2.21c-1.54,0-2.32,0.83-2.32,2.47v1.04c0,0.89,0.58,1.49,1.75,1.82c0.52,0.14,1.09,0.26,1.72,0.38
		c0.63,0.11,1.26,0.26,1.89,0.44C80,8.01,80.57,8.23,81.09,8.5c0.52,0.27,0.94,0.68,1.26,1.22c0.32,0.55,0.48,1.21,0.48,1.99v1.17
		c0,1.2-0.35,2.14-1.04,2.82c-0.69,0.69-1.63,1.03-2.81,1.03h-2.99c-1.18,0-2.12-0.34-2.81-1.03
		C72.49,15.03,72.14,14.08,72.14,12.89z"/>
	<path class="st7" d="M88.96,16.74h-1.17c-0.24,0-0.36-0.12-0.36-0.36V0.36c0-0.24,0.12-0.36,0.36-0.36h1.17
		c0.24,0,0.36,0.12,0.36,0.36v8.98h0.08c0.12-0.36,0.31-0.72,0.57-1.07l5.83-7.91C95.96,0.12,96.19,0,96.48,0h1.41
		c0.3,0,0.34,0.13,0.13,0.39l-5.15,6.98l5.88,8.96c0.19,0.28,0.11,0.42-0.23,0.42h-1.07c-0.36,0-0.61-0.12-0.75-0.36l-5-7.63
		l-2.37,2.84v4.79C89.32,16.62,89.2,16.74,88.96,16.74z"/>
	<path class="st7" d="M109.32,16.74h-1.17c-0.24,0-0.36-0.12-0.36-0.36V0.36c0-0.24,0.12-0.36,0.36-0.36h1.17
		c0.24,0,0.36,0.12,0.36,0.36v6.85c0,0.16,0.09,0.23,0.26,0.23h6.46c0.17,0,0.26-0.08,0.26-0.23V0.36c0-0.24,0.12-0.36,0.36-0.36
		h1.17c0.24,0,0.36,0.12,0.36,0.36v16.01c0,0.24-0.12,0.36-0.36,0.36h-1.17c-0.24,0-0.36-0.12-0.36-0.36V9.35
		c0-0.16-0.09-0.23-0.26-0.23h-6.46c-0.17,0-0.26,0.08-0.26,0.23v7.03C109.68,16.62,109.56,16.74,109.32,16.74z"/>
	<path class="st7" d="M130.01,16.74h-3.1c-1.2,0-2.14-0.34-2.82-1.02c-0.69-0.68-1.03-1.62-1.03-2.84V3.85
		c0-1.21,0.34-2.16,1.03-2.84c0.69-0.68,1.63-1.02,2.82-1.02h3.1c1.2,0,2.14,0.34,2.83,1.03c0.68,0.69,1.03,1.63,1.03,2.82v9.03
		c0,1.2-0.34,2.14-1.03,2.82C132.15,16.4,131.21,16.74,130.01,16.74z M127.12,15.07h2.66c1.46,0,2.19-0.76,2.19-2.26V3.93
		c0-1.51-0.73-2.27-2.19-2.27h-2.66c-1.44,0-2.16,0.76-2.16,2.27v8.88C124.96,14.32,125.68,15.07,127.12,15.07z"/>
	<path class="st7" d="M147.27,0h1.17c0.24,0,0.36,0.11,0.36,0.34v12.55c0,1.21-0.34,2.16-1.02,2.84c-0.68,0.68-1.62,1.02-2.81,1.02
		h-2.89c-1.2,0-2.14-0.34-2.82-1.02c-0.69-0.68-1.03-1.62-1.03-2.84V0.36c0-0.24,0.12-0.36,0.36-0.36h1.17
		c0.24,0,0.36,0.12,0.36,0.36v12.44c0,1.51,0.72,2.26,2.16,2.26h2.45c1.46,0,2.19-0.76,2.19-2.26V0.36
		C146.93,0.12,147.05,0,147.27,0z"/>
	<path class="st7" d="M153.26,12.89v-0.83c0-0.24,0.12-0.36,0.36-0.36h1.17c0.24,0,0.36,0.12,0.36,0.36v0.68
		c0,1.56,0.77,2.34,2.32,2.34h2.29c1.54,0,2.32-0.8,2.32-2.4v-0.88c0-1.25-1.03-2.07-3.1-2.45c-0.87-0.16-1.73-0.34-2.6-0.55
		s-1.6-0.61-2.21-1.21c-0.61-0.6-0.91-1.42-0.91-2.46V3.85c0-1.2,0.34-2.14,1.03-2.82c0.68-0.69,1.63-1.03,2.82-1.03H160
		c1.18,0,2.12,0.34,2.81,1.03c0.69,0.69,1.04,1.63,1.04,2.82V4.5c0,0.26-0.11,0.39-0.34,0.39h-1.2c-0.23,0-0.34-0.13-0.34-0.39V4.04
		c0-1.58-0.77-2.37-2.32-2.37h-2.21c-1.54,0-2.32,0.83-2.32,2.47v1.04c0,0.89,0.58,1.49,1.75,1.82c0.52,0.14,1.09,0.26,1.72,0.38
		c0.63,0.11,1.26,0.26,1.89,0.44c0.63,0.18,1.21,0.41,1.73,0.68c0.52,0.27,0.94,0.68,1.26,1.22c0.32,0.55,0.48,1.21,0.48,1.99v1.17
		c0,1.2-0.35,2.14-1.04,2.82c-0.69,0.69-1.63,1.03-2.81,1.03h-2.99c-1.18,0-2.12-0.34-2.81-1.03
		C153.61,15.03,153.26,14.08,153.26,12.89z"/>
	<path class="st7" d="M177.08,16.74h-8.17c-0.24,0-0.36-0.12-0.36-0.36V0.36c0-0.24,0.12-0.36,0.36-0.36h8.17
		c0.24,0,0.36,0.12,0.36,0.36V1.3c0,0.24-0.12,0.36-0.36,0.36h-6.38c-0.17,0-0.26,0.08-0.26,0.23v5.26c0,0.16,0.09,0.23,0.26,0.23
		h5.57c0.24,0,0.36,0.12,0.36,0.36V8.7c0,0.24-0.12,0.36-0.36,0.36h-5.57c-0.17,0-0.26,0.08-0.26,0.23v5.54
		c0,0.16,0.09,0.23,0.26,0.23h6.38c0.24,0,0.36,0.12,0.36,0.36v0.94C177.45,16.62,177.32,16.74,177.08,16.74z"/>
</g>
</svg>
