<?xml version="1.0" encoding="utf-8"?>
<!-- Generator: Adobe Illustrator 24.0.1, SVG Export Plug-In . SVG Version: 6.00 Build 0)  -->
<svg version="1.1" xmlns="http://www.w3.org/2000/svg" xmlns:xlink="http://www.w3.org/1999/xlink" x="0px" y="0px"
	 viewBox="0 0 388.64 149" style="enable-background:new 0 0 388.64 149;" xml:space="preserve">
<style type="text/css">
	.st0{fill:#231815;}
</style>
<g id="札弦版">
</g>
<g id="斜里版">
	<g>
		<g>
			<path class="st0" d="M26.07,57.23c-0.24-0.1-0.51,0.07-0.51,0.33v36.65c0,0.26,0.27,0.44,0.51,0.33l2.49-1.08
				c0.13-0.06,0.22-0.19,0.22-0.33V58.64c0-0.14-0.09-0.28-0.22-0.33L26.07,57.23z"/>
			<path class="st0" d="M33.34,101.01c-0.12-0.07-0.28-0.06-0.4,0.02l-2.18,1.62c-0.21,0.16-0.19,0.47,0.03,0.61l31.94,18.44
				c0.23,0.13,0.51-0.01,0.54-0.27l0.31-2.69c0.02-0.14-0.05-0.28-0.18-0.36L33.34,101.01z"/>
			<path class="st0" d="M30.55,48.97l2.18,1.61c0.12,0.09,0.27,0.1,0.4,0.02l30.06-17.36c0.12-0.07,0.2-0.21,0.18-0.36l-0.31-2.69
				c-0.03-0.26-0.32-0.4-0.54-0.27L30.58,48.36C30.36,48.49,30.34,48.81,30.55,48.97z"/>
			<path class="st0" d="M109.88,57.09l-2.49,1.08c-0.13,0.06-0.22,0.19-0.22,0.33v34.49c0,0.14,0.09,0.28,0.22,0.33l2.49,1.08
				c0.24,0.1,0.51-0.07,0.51-0.33V57.42C110.39,57.16,110.12,56.99,109.88,57.09z"/>
			<path class="st0" d="M102.72,50.54c0.13,0.07,0.28,0.06,0.4-0.02l2.18-1.61c0.21-0.16,0.19-0.47-0.03-0.61L73.44,29.93
				c-0.23-0.13-0.51,0.01-0.54,0.27l-0.31,2.69c-0.02,0.14,0.05,0.28,0.18,0.36L102.72,50.54z"/>
			<path class="st0" d="M105.29,102.59l-2.18-1.61c-0.12-0.09-0.27-0.1-0.4-0.02l-30.18,17.42c-0.13,0.07-0.2,0.21-0.18,0.36
				l0.31,2.69c0.03,0.26,0.32,0.4,0.54,0.27l32.04-18.5C105.48,103.06,105.5,102.74,105.29,102.59z"/>
			<path class="st0" d="M124.18,100.6c0.24,0.1,0.51-0.07,0.51-0.33V51.22c0-0.26-0.27-0.44-0.51-0.33l-2.49,1.08
				c-0.13,0.06-0.22,0.19-0.22,0.33v46.89c0,0.14,0.09,0.28,0.22,0.33L124.18,100.6z"/>
			<path class="st0" d="M12.86,51.51c-0.24-0.1-0.51,0.07-0.51,0.33v48.09c0,0.26,0.27,0.44,0.51,0.33l2.49-1.08
				c0.13-0.06,0.22-0.19,0.22-0.33V52.92c0-0.14-0.09-0.28-0.22-0.33L12.86,51.51z"/>
			<path class="st0" d="M17.69,39.43l2.18,1.61c0.12,0.09,0.27,0.1,0.4,0.02l41.09-23.72c0.12-0.07,0.2-0.21,0.18-0.36l-0.31-2.69
				c-0.03-0.26-0.32-0.4-0.54-0.27l-42.95,24.8C17.5,38.95,17.48,39.27,17.69,39.43z"/>
			<path class="st0" d="M22.6,108.98c-0.12-0.07-0.28-0.06-0.4,0.02l-2.18,1.61c-0.21,0.16-0.19,0.47,0.03,0.61l41.15,23.76
				c0.23,0.13,0.51-0.01,0.54-0.27l0.31-2.69c0.02-0.14-0.05-0.28-0.18-0.36L22.6,108.98z"/>
			<path class="st0" d="M116.06,40.65c0.12,0.07,0.28,0.06,0.4-0.02l2.18-1.62c0.21-0.16,0.19-0.47-0.03-0.61L75.34,13.43
				c-0.23-0.13-0.51,0.01-0.54,0.27l-0.31,2.69c-0.02,0.14,0.05,0.28,0.18,0.36L116.06,40.65z"/>
			<path class="st0" d="M116.51,110.91l-2.18-1.61c-0.12-0.09-0.27-0.1-0.4-0.02l-39.8,22.98c-0.13,0.07-0.2,0.21-0.18,0.36
				l0.31,2.69c0.03,0.26,0.32,0.4,0.54,0.27l41.67-24.06C116.71,111.39,116.72,111.07,116.51,110.91z"/>
			<path class="st0" d="M129.41,30.38L76.88,0.05c-0.23-0.13-0.51,0.01-0.54,0.27l-0.31,2.69c-0.02,0.14,0.05,0.28,0.18,0.36
				l50.67,29.25c0.13,0.07,0.28,0.06,0.4-0.02l2.18-1.61C129.65,30.83,129.64,30.51,129.41,30.38z"/>
			<path class="st0" d="M9.45,33.04L59.81,3.97c0.13-0.07,0.2-0.21,0.18-0.36l-0.31-2.69c-0.03-0.26-0.32-0.4-0.54-0.27L6.91,30.8
				c-0.23,0.13-0.24,0.45-0.03,0.61l2.18,1.61C9.17,33.11,9.33,33.11,9.45,33.04z"/>
			<path class="st0" d="M11.78,117c-0.13-0.07-0.28-0.06-0.4,0.02l-2.18,1.61c-0.21,0.16-0.19,0.47,0.03,0.61l50.42,29.11
				c0.23,0.13,0.51-0.01,0.54-0.27l0.31-2.69c0.02-0.14-0.05-0.28-0.18-0.36L11.78,117z"/>
			<path class="st0" d="M136.54,45.54l-2.49,1.08c-0.13,0.06-0.22,0.19-0.22,0.33v57.6c0,0.14,0.09,0.28,0.22,0.33l2.49,1.08
				c0.24,0.1,0.51-0.07,0.51-0.33V45.87C137.05,45.61,136.78,45.43,136.54,45.54z"/>
			<path class="st0" d="M125.15,117.32c-0.12-0.09-0.27-0.1-0.4-0.02l-49.08,28.33c-0.13,0.07-0.2,0.21-0.18,0.36l0.31,2.69
				c0.03,0.26,0.32,0.4,0.54,0.27l50.94-29.41c0.23-0.13,0.24-0.45,0.03-0.61L125.15,117.32z"/>
			<path class="st0" d="M3,47.23l-2.49-1.08C0.27,46.05,0,46.23,0,46.49v58.8c0,0.26,0.27,0.44,0.51,0.33L3,104.54
				c0.13-0.06,0.22-0.19,0.22-0.33V47.57C3.21,47.42,3.13,47.29,3,47.23z"/>
		</g>
		<g>
			<g>
				<path class="st0" d="M187.37,48.46h-6.78c-2.62,0-4.68-0.74-6.19-2.22c-1.5-1.48-2.25-3.55-2.25-6.21V20.23
					c0-2.66,0.75-4.73,2.25-6.21c1.5-1.48,3.57-2.22,6.19-2.22h6.78c2.63,0,4.69,0.75,6.19,2.25c1.5,1.5,2.25,3.57,2.25,6.19v19.79
					c0,2.62-0.75,4.69-2.25,6.19C192.06,47.71,190,48.46,187.37,48.46z M181.05,44.81h5.82c3.19,0,4.79-1.65,4.79-4.96V20.41
					c0-3.31-1.6-4.96-4.79-4.96h-5.82c-3.16,0-4.73,1.65-4.73,4.96v19.45C176.31,43.15,177.89,44.81,181.05,44.81z"/>
				<path class="st0" d="M209.04,48.46h-2.56c-0.53,0-0.8-0.26-0.8-0.8V12.59c0-0.53,0.27-0.8,0.8-0.8h2.56c0.53,0,0.8,0.27,0.8,0.8
					v19.67h0.17c0.26-0.79,0.68-1.58,1.25-2.34l12.77-17.33c0.34-0.53,0.83-0.8,1.48-0.8h3.08c0.65,0,0.74,0.28,0.28,0.85
					L217.6,27.93l12.89,19.61c0.41,0.61,0.25,0.91-0.51,0.91h-2.34c-0.79,0-1.35-0.26-1.65-0.8l-10.95-16.7l-5.19,6.21v10.49
					C209.84,48.2,209.57,48.46,209.04,48.46z"/>
				<path class="st0" d="M241.14,48.46h-2.56c-0.53,0-0.8-0.26-0.8-0.8V12.59c0-0.53,0.27-0.8,0.8-0.8h2.56c0.53,0,0.8,0.27,0.8,0.8
					v15c0,0.34,0.19,0.51,0.57,0.51h14.14c0.38,0,0.58-0.17,0.58-0.51v-15c0-0.53,0.26-0.8,0.79-0.8h2.57c0.53,0,0.79,0.27,0.79,0.8
					v35.06c0,0.54-0.26,0.8-0.79,0.8h-2.57c-0.53,0-0.79-0.26-0.79-0.8V32.26c0-0.34-0.2-0.51-0.58-0.51h-14.14
					c-0.38,0-0.57,0.17-0.57,0.51v15.39C241.94,48.2,241.67,48.46,241.14,48.46z"/>
				<path class="st0" d="M286.46,48.46h-6.78c-2.62,0-4.68-0.74-6.19-2.22c-1.5-1.48-2.25-3.55-2.25-6.21V20.23
					c0-2.66,0.75-4.73,2.25-6.21c1.5-1.48,3.57-2.22,6.19-2.22h6.78c2.63,0,4.69,0.75,6.19,2.25c1.5,1.5,2.25,3.57,2.25,6.19v19.79
					c0,2.62-0.75,4.69-2.25,6.19C291.15,47.71,289.09,48.46,286.46,48.46z M280.14,44.81h5.82c3.19,0,4.79-1.65,4.79-4.96V20.41
					c0-3.31-1.6-4.96-4.79-4.96h-5.82c-3.16,0-4.73,1.65-4.73,4.96v19.45C275.4,43.15,276.98,44.81,280.14,44.81z"/>
				<path class="st0" d="M313.72,48.46h-2.56c-0.53,0-0.8-0.26-0.8-0.8v-31.7c0-0.34-0.19-0.51-0.57-0.51h-7.76
					c-0.57,0-0.85-0.26-0.85-0.79v-2.06c0-0.53,0.28-0.8,0.85-0.8h20.82c0.57,0,0.85,0.27,0.85,0.8v2.06c0,0.53-0.28,0.79-0.85,0.79
					h-7.76c-0.38,0-0.57,0.17-0.57,0.51v31.7C314.52,48.2,314.25,48.46,313.72,48.46z"/>
				<path class="st0" d="M330.14,40.02V38.2c0-0.54,0.26-0.8,0.8-0.8h2.56c0.53,0,0.8,0.26,0.8,0.8v1.48c0,3.42,1.69,5.13,5.07,5.13
					h5.02c3.38,0,5.07-1.75,5.07-5.25v-1.93c0-2.74-2.26-4.53-6.79-5.36c-1.9-0.34-3.8-0.74-5.7-1.2c-1.9-0.45-3.51-1.34-4.84-2.65
					c-1.33-1.31-1.99-3.11-1.99-5.39v-2.79c0-2.62,0.75-4.68,2.25-6.19c1.5-1.5,3.56-2.25,6.19-2.25h6.33
					c2.59,0,4.64,0.75,6.16,2.25c1.52,1.5,2.29,3.57,2.29,6.19v1.43c0,0.57-0.25,0.85-0.74,0.85h-2.62c-0.5,0-0.74-0.28-0.74-0.85
					v-1.03c0-3.46-1.69-5.19-5.07-5.19h-4.85c-3.38,0-5.07,1.81-5.07,5.42v2.28c0,1.94,1.27,3.27,3.82,3.99
					c1.14,0.31,2.4,0.58,3.76,0.83c1.37,0.25,2.75,0.57,4.14,0.97c1.39,0.4,2.65,0.89,3.79,1.48c1.14,0.59,2.06,1.48,2.77,2.68
					c0.7,1.2,1.05,2.65,1.05,4.36v2.56c0,2.62-0.76,4.69-2.28,6.19c-1.52,1.5-3.57,2.25-6.16,2.25h-6.55
					c-2.59,0-4.64-0.75-6.16-2.25C330.9,44.71,330.14,42.64,330.14,40.02z"/>
				<path class="st0" d="M366.98,48.46h-2.56c-0.53,0-0.8-0.26-0.8-0.8V12.59c0-0.53,0.27-0.8,0.8-0.8h2.56c0.53,0,0.8,0.27,0.8,0.8
					v19.67h0.17c0.26-0.79,0.68-1.58,1.25-2.34l12.77-17.33c0.34-0.53,0.83-0.8,1.48-0.8h3.08c0.65,0,0.74,0.28,0.28,0.85
					l-11.29,15.28l12.89,19.61c0.41,0.61,0.25,0.91-0.51,0.91h-2.34c-0.79,0-1.35-0.26-1.65-0.8l-10.95-16.7l-5.19,6.21v10.49
					C367.78,48.2,367.51,48.46,366.98,48.46z"/>
			</g>
			<g>
				<path class="st0" d="M175.51,105.71h-2.56c-0.53,0-0.8-0.26-0.8-0.8V69.85c0-0.53,0.27-0.8,0.8-0.8h2.56
					c0.53,0,0.8,0.27,0.8,0.8v15c0,0.34,0.19,0.51,0.57,0.51h14.14c0.38,0,0.58-0.17,0.58-0.51v-15c0-0.53,0.26-0.8,0.79-0.8h2.57
					c0.53,0,0.79,0.27,0.79,0.8v35.06c0,0.54-0.26,0.8-0.79,0.8h-2.57c-0.53,0-0.79-0.26-0.79-0.8V89.52c0-0.34-0.2-0.51-0.58-0.51
					h-14.14c-0.38,0-0.57,0.17-0.57,0.51v15.39C176.31,105.45,176.04,105.71,175.51,105.71z"/>
				<path class="st0" d="M220.84,105.71h-6.78c-2.62,0-4.68-0.74-6.19-2.22c-1.5-1.48-2.25-3.55-2.25-6.21V77.49
					c0-2.66,0.75-4.73,2.25-6.21c1.5-1.48,3.57-2.22,6.19-2.22h6.78c2.63,0,4.69,0.75,6.19,2.25c1.5,1.5,2.25,3.57,2.25,6.19v19.79
					c0,2.62-0.75,4.69-2.25,6.19C225.53,104.96,223.46,105.71,220.84,105.71z M214.51,102.06h5.82c3.19,0,4.79-1.65,4.79-4.96V77.66
					c0-3.31-1.6-4.96-4.79-4.96h-5.82c-3.16,0-4.73,1.65-4.73,4.96v19.45C209.78,100.41,211.36,102.06,214.51,102.06z"/>
				<path class="st0" d="M258.65,69.05h2.56c0.53,0,0.8,0.25,0.8,0.74v27.48c0,2.66-0.74,4.73-2.22,6.21
					c-1.49,1.49-3.54,2.22-6.16,2.22h-6.33c-2.62,0-4.68-0.74-6.19-2.22c-1.5-1.48-2.25-3.55-2.25-6.21V69.85
					c0-0.53,0.27-0.8,0.8-0.8h2.56c0.53,0,0.8,0.27,0.8,0.8v27.26c0,3.3,1.58,4.96,4.73,4.96h5.36c3.19,0,4.79-1.65,4.79-4.96V69.85
					C257.9,69.32,258.15,69.05,258.65,69.05z"/>
				<path class="st0" d="M271.76,97.28v-1.82c0-0.54,0.26-0.8,0.8-0.8h2.56c0.53,0,0.8,0.26,0.8,0.8v1.48
					c0,3.42,1.69,5.13,5.07,5.13h5.02c3.38,0,5.07-1.75,5.07-5.25v-1.93c0-2.74-2.26-4.53-6.79-5.36c-1.9-0.34-3.8-0.74-5.7-1.2
					c-1.9-0.45-3.51-1.34-4.84-2.65c-1.33-1.31-1.99-3.11-1.99-5.39v-2.79c0-2.62,0.75-4.68,2.25-6.19c1.5-1.5,3.56-2.25,6.19-2.25
					h6.33c2.59,0,4.64,0.75,6.16,2.25c1.52,1.5,2.29,3.57,2.29,6.19v1.43c0,0.57-0.25,0.85-0.74,0.85h-2.62
					c-0.5,0-0.74-0.28-0.74-0.85v-1.03c0-3.46-1.69-5.19-5.07-5.19h-4.85c-3.38,0-5.07,1.81-5.07,5.42v2.28
					c0,1.94,1.27,3.27,3.82,3.99c1.14,0.31,2.4,0.58,3.76,0.83c1.37,0.25,2.75,0.57,4.14,0.97c1.39,0.4,2.65,0.89,3.79,1.48
					c1.14,0.59,2.06,1.48,2.77,2.68c0.7,1.2,1.05,2.65,1.05,4.36v2.56c0,2.62-0.76,4.69-2.28,6.19c-1.52,1.5-3.57,2.25-6.16,2.25
					h-6.55c-2.59,0-4.64-0.75-6.16-2.25C272.52,101.96,271.76,99.9,271.76,97.28z"/>
				<path class="st0" d="M323.93,105.71h-17.9c-0.53,0-0.8-0.26-0.8-0.8V69.85c0-0.53,0.27-0.8,0.8-0.8h17.9
					c0.53,0,0.8,0.27,0.8,0.8v2.06c0,0.53-0.27,0.79-0.8,0.79h-13.97c-0.38,0-0.57,0.17-0.57,0.51v11.52c0,0.35,0.19,0.51,0.57,0.51
					h12.2c0.53,0,0.79,0.27,0.79,0.8v2.05c0,0.54-0.26,0.8-0.79,0.8h-12.2c-0.38,0-0.57,0.17-0.57,0.51v12.14
					c0,0.35,0.19,0.51,0.57,0.51h13.97c0.53,0,0.8,0.27,0.8,0.8v2.05C324.73,105.45,324.46,105.71,323.93,105.71z"/>
			</g>
			<g>
				<path class="st0" d="M172.15,137.45v-0.49c0-0.22,0.11-0.32,0.32-0.32h1.2c0.21,0,0.32,0.11,0.32,0.32v0.34
					c0,0.53,0.12,0.91,0.35,1.14c0.23,0.23,0.62,0.35,1.16,0.35h1.3c0.54,0,0.93-0.12,1.17-0.37c0.23-0.24,0.35-0.64,0.35-1.19
					v-0.43c0-0.4-0.15-0.72-0.46-0.95c-0.31-0.23-0.69-0.39-1.14-0.46c-0.45-0.06-0.95-0.17-1.49-0.29
					c-0.54-0.12-1.03-0.27-1.48-0.43c-0.46-0.16-0.83-0.47-1.14-0.92c-0.3-0.45-0.46-1.03-0.46-1.73v-0.79
					c0-0.91,0.26-1.63,0.78-2.15c0.52-0.52,1.24-0.78,2.16-0.78h2c0.93,0,1.65,0.26,2.17,0.78c0.52,0.52,0.78,1.24,0.78,2.15v0.41
					c0,0.22-0.11,0.32-0.32,0.32h-1.21c-0.21,0-0.32-0.11-0.32-0.32v-0.24c0-0.54-0.12-0.93-0.35-1.16
					c-0.23-0.23-0.62-0.35-1.16-0.35h-1.19c-0.54,0-0.92,0.12-1.16,0.37c-0.23,0.24-0.35,0.66-0.35,1.25v0.58
					c0,0.57,0.41,0.95,1.22,1.15c0.36,0.09,0.76,0.16,1.2,0.23c0.43,0.06,0.87,0.16,1.31,0.28c0.44,0.12,0.84,0.29,1.2,0.5
					s0.66,0.52,0.88,0.94c0.23,0.42,0.34,0.93,0.34,1.53v0.73c0,0.92-0.26,1.64-0.78,2.16c-0.52,0.52-1.24,0.78-2.16,0.78h-2.11
					c-0.92,0-1.64-0.26-2.17-0.78C172.41,139.08,172.15,138.37,172.15,137.45z"/>
				<path class="st0" d="M195.49,140.38h-1.18c-0.22,0-0.32-0.11-0.32-0.32V128.6c0-0.22,0.11-0.32,0.32-0.32h1.18
					c0.21,0,0.32,0.11,0.32,0.32v4.7c0,0.12,0.07,0.19,0.23,0.19h3.97c0.12,0,0.19-0.06,0.19-0.19v-4.7c0-0.22,0.11-0.32,0.32-0.32
					h1.21c0.21,0,0.32,0.11,0.32,0.32v11.46c0,0.21-0.11,0.32-0.32,0.32h-1.21c-0.21,0-0.32-0.11-0.32-0.32v-4.76
					c0-0.12-0.06-0.19-0.19-0.19h-3.97c-0.15,0-0.23,0.06-0.23,0.19v4.76C195.81,140.28,195.7,140.38,195.49,140.38z"/>
				<path class="st0" d="M216.75,140.38h-1.35c-0.18,0-0.24-0.11-0.19-0.32l3.28-11.46c0.06-0.22,0.21-0.32,0.45-0.32h1.88
					c0.25,0,0.4,0.11,0.45,0.32l3.28,11.46c0.05,0.21-0.02,0.32-0.21,0.32H223c-0.12,0-0.19-0.02-0.23-0.06
					c-0.05-0.05-0.08-0.13-0.11-0.25l-0.71-2.45h-4.14l-0.71,2.45C217.04,140.28,216.92,140.38,216.75,140.38z M219.83,130.09
					l-1.65,6.03h3.4l-1.67-6.03H219.83z"/>
				<path class="st0" d="M239.2,140.38h-1.18c-0.22,0-0.32-0.11-0.32-0.32V128.6c0-0.22,0.11-0.32,0.32-0.32h4.4
					c0.92,0,1.64,0.26,2.16,0.78s0.78,1.24,0.78,2.15v1.59c0,1.44-0.59,2.35-1.79,2.73v0.07l2.09,4.41
					c0.13,0.25,0.06,0.37-0.25,0.37h-1.17c-0.3,0-0.5-0.11-0.59-0.32l-2.01-4.33h-1.9c-0.15,0-0.23,0.06-0.23,0.19v4.14
					C239.53,140.28,239.42,140.38,239.2,140.38z M239.73,134.23h2.39c0.93,0,1.4-0.46,1.4-1.37v-1.58c0-0.93-0.47-1.4-1.4-1.4h-2.39
					c-0.14,0-0.21,0.06-0.21,0.19v3.97C239.53,134.17,239.6,134.23,239.73,134.23z"/>
				<path class="st0" d="M261.12,128.6v11.46c0,0.21-0.11,0.32-0.32,0.32h-1.19c-0.21,0-0.32-0.11-0.32-0.32V128.6
					c0-0.22,0.11-0.32,0.32-0.32h1.19C261.01,128.28,261.12,128.39,261.12,128.6z"/>
			</g>
		</g>
	</g>
</g>
<g id="清里版">
</g>
<g id="マーク_xFF0B_ロゴタイプ">
</g>
</svg>
