<?xml version="1.0" encoding="utf-8"?>
<!-- Generator: Adobe Illustrator 24.0.1, SVG Export Plug-In . SVG Version: 6.00 Build 0)  -->
<svg version="1.1" id="レイヤー_1" xmlns="http://www.w3.org/2000/svg" xmlns:xlink="http://www.w3.org/1999/xlink" x="0px"
	 y="0px" viewBox="0 0 62.58 68.03" style="enable-background:new 0 0 62.58 68.03;" xml:space="preserve">
<style type="text/css">
	.st0{clip-path:url(#SVGID_2_);}
	.st1{fill:#A7AE9E;}
	.st2{clip-path:url(#SVGID_8_);}
	.st3{fill:#FFFFFF;}
	.st4{fill:#221815;}
	.st5{fill:#D5E7E7;}
	.st6{fill:#F6F6F6;}
	.st7{fill:#231916;}
	.st8{fill:none;stroke:#221815;stroke-width:1.9325;stroke-miterlimit:10;}
	.st9{fill:#FFFFFF;stroke:#221815;stroke-width:1.9325;stroke-miterlimit:10;}
	.st10{clip-path:url(#SVGID_12_);}
	.st11{fill:#FF1C23;}
	.st12{fill:#B3B3B3;}
	.st13{fill:#ECECEC;}
	.st14{fill:#E0E2DD;}
	.st15{fill:none;stroke:#FFFFFF;stroke-width:0.7966;stroke-linejoin:bevel;stroke-miterlimit:10;}
	.st16{fill:none;stroke:#221815;stroke-width:0.7966;stroke-miterlimit:10;}
	.st17{fill:none;stroke:#221815;stroke-width:0.7966;stroke-linejoin:bevel;stroke-miterlimit:10;}
	.st18{fill:none;stroke:#221815;stroke-width:0.7807;stroke-linejoin:bevel;stroke-miterlimit:10;}
	.st19{clip-path:url(#SVGID_18_);}
	.st20{clip-path:url(#SVGID_20_);}
	.st21{fill:none;stroke:#FFFFFF;stroke-width:0.4652;stroke-linejoin:bevel;stroke-miterlimit:10;}
	.st22{fill:none;stroke:#221815;stroke-width:0.4652;stroke-miterlimit:10;}
	.st23{fill:none;stroke:#221815;stroke-width:0.4652;stroke-linejoin:bevel;stroke-miterlimit:10;}
	.st24{fill:none;stroke:#221815;stroke-width:0.4559;stroke-linejoin:bevel;stroke-miterlimit:10;}
	.st25{clip-path:url(#SVGID_26_);}
	.st26{fill:none;}
	.st27{clip-path:url(#SVGID_28_);}
</style>
<g>
	<path class="st7" d="M11.9,26.13c-0.11-0.05-0.23,0.03-0.23,0.15v16.73c0,0.12,0.12,0.2,0.23,0.15l1.14-0.49
		c0.06-0.03,0.1-0.09,0.1-0.15V26.78c0-0.07-0.04-0.13-0.1-0.15L11.9,26.13z"/>
	<path class="st7" d="M15.22,46.12c-0.06-0.03-0.13-0.03-0.18,0.01l-0.99,0.74c-0.1,0.07-0.09,0.22,0.02,0.28l14.58,8.42
		c0.1,0.06,0.23-0.01,0.25-0.12l0.14-1.23c0.01-0.07-0.02-0.13-0.08-0.16L15.22,46.12z"/>
	<path class="st7" d="M13.95,22.36l0.99,0.74c0.05,0.04,0.12,0.04,0.18,0.01l13.73-7.92c0.06-0.03,0.09-0.1,0.08-0.16l-0.14-1.23
		c-0.01-0.12-0.14-0.18-0.25-0.12l-14.58,8.42C13.86,22.14,13.85,22.29,13.95,22.36z"/>
	<path class="st7" d="M50.17,26.07l-1.14,0.49c-0.06,0.03-0.1,0.09-0.1,0.15v15.75c0,0.07,0.04,0.13,0.1,0.15l1.14,0.49
		c0.11,0.05,0.23-0.03,0.23-0.15V26.22C50.4,26.1,50.28,26.02,50.17,26.07z"/>
	<path class="st7" d="M46.9,23.08c0.06,0.03,0.13,0.03,0.18-0.01l0.99-0.74c0.1-0.07,0.09-0.22-0.02-0.28l-14.53-8.39
		c-0.1-0.06-0.23,0.01-0.25,0.12l-0.14,1.23c-0.01,0.07,0.02,0.13,0.08,0.16L46.9,23.08z"/>
	<path class="st7" d="M48.08,46.84l-0.99-0.74c-0.05-0.04-0.12-0.04-0.18-0.01l-13.78,7.95c-0.06,0.03-0.09,0.1-0.08,0.16l0.14,1.23
		c0.01,0.12,0.14,0.18,0.25,0.12l14.63-8.45C48.16,47.06,48.17,46.91,48.08,46.84z"/>
	<path class="st7" d="M56.7,45.93c0.11,0.05,0.23-0.03,0.23-0.15V23.39c0-0.12-0.12-0.2-0.23-0.15l-1.14,0.49
		c-0.06,0.03-0.1,0.09-0.1,0.15v21.41c0,0.07,0.04,0.13,0.1,0.15L56.7,45.93z"/>
	<path class="st7" d="M5.87,23.52c-0.11-0.05-0.23,0.03-0.23,0.15v21.96c0,0.12,0.12,0.2,0.23,0.15l1.14-0.49
		c0.06-0.03,0.1-0.09,0.1-0.15V24.16c0-0.07-0.04-0.13-0.1-0.15L5.87,23.52z"/>
	<path class="st7" d="M8.08,18l0.99,0.74c0.05,0.04,0.12,0.04,0.18,0.01L28.01,7.92c0.06-0.03,0.09-0.1,0.08-0.16l-0.14-1.23
		c-0.01-0.12-0.14-0.18-0.25-0.12L8.09,17.73C7.99,17.79,7.98,17.93,8.08,18z"/>
	<path class="st7" d="M10.32,49.76c-0.06-0.03-0.13-0.03-0.18,0.01l-0.99,0.74c-0.1,0.07-0.09,0.22,0.02,0.28l18.79,10.85
		c0.1,0.06,0.23-0.01,0.25-0.12l0.14-1.23c0.01-0.07-0.02-0.13-0.08-0.16L10.32,49.76z"/>
	<path class="st7" d="M52.99,18.56c0.06,0.03,0.13,0.03,0.18-0.01l0.99-0.74c0.1-0.07,0.09-0.22-0.02-0.28L34.4,6.13
		c-0.1-0.06-0.23,0.01-0.25,0.12l-0.14,1.23C34,7.55,34.03,7.62,34.09,7.65L52.99,18.56z"/>
	<path class="st7" d="M53.2,50.64l-0.99-0.74c-0.05-0.04-0.12-0.04-0.18-0.01L33.85,60.39c-0.06,0.03-0.09,0.1-0.08,0.16l0.14,1.23
		c0.01,0.12,0.14,0.18,0.25,0.12l19.03-10.98C53.29,50.86,53.3,50.71,53.2,50.64z"/>
	<path class="st7" d="M59.09,13.87L35.1,0.02c-0.1-0.06-0.23,0.01-0.25,0.12l-0.14,1.23c-0.01,0.07,0.02,0.13,0.08,0.16L57.93,14.9
		c0.06,0.03,0.13,0.03,0.18-0.01l0.99-0.74C59.2,14.08,59.19,13.93,59.09,13.87z"/>
	<path class="st7" d="M4.32,15.09L27.31,1.81c0.06-0.03,0.09-0.1,0.08-0.16l-0.14-1.23C27.24,0.3,27.11,0.23,27,0.29L3.16,14.06
		c-0.1,0.06-0.11,0.21-0.02,0.28l0.99,0.74C4.19,15.12,4.26,15.12,4.32,15.09z"/>
	<path class="st7" d="M5.38,53.42c-0.06-0.03-0.13-0.03-0.18,0.01L4.2,54.17c-0.1,0.07-0.09,0.22,0.02,0.28l23.02,13.29
		c0.1,0.06,0.23-0.01,0.25-0.12l0.14-1.23c0.01-0.07-0.02-0.13-0.08-0.16L5.38,53.42z"/>
	<path class="st7" d="M62.34,20.79l-1.14,0.49c-0.06,0.03-0.1,0.09-0.1,0.15v26.3c0,0.07,0.04,0.13,0.1,0.15l1.14,0.49
		c0.11,0.05,0.23-0.03,0.23-0.15V20.94C62.58,20.82,62.45,20.74,62.34,20.79z"/>
	<path class="st7" d="M57.14,53.57c-0.05-0.04-0.12-0.04-0.18-0.01L34.55,66.49c-0.06,0.03-0.09,0.1-0.08,0.16l0.14,1.23
		c0.01,0.12,0.14,0.18,0.25,0.12l23.26-13.43c0.1-0.06,0.11-0.21,0.02-0.28L57.14,53.57z"/>
	<path class="st7" d="M1.37,21.57l-1.14-0.49C0.12,21.03,0,21.11,0,21.23v26.85c0,0.12,0.12,0.2,0.23,0.15l1.14-0.49
		c0.06-0.03,0.1-0.09,0.1-0.15V21.72C1.47,21.65,1.43,21.59,1.37,21.57z"/>
</g>
</svg>
